<?xml version="1.0" encoding="utf-8"?>
<!-- Generator: Adobe Illustrator 19.2.1, SVG Export Plug-In . SVG Version: 6.00 Build 0)  -->
<svg version="1.1" id="Capa_1" xmlns="http://www.w3.org/2000/svg" xmlns:xlink="http://www.w3.org/1999/xlink" x="0px" y="0px"
	 viewBox="0 0 451.3 451.4" style="enable-background:new 0 0 451.3 451.4;" xml:space="preserve">
<style type="text/css">
	.st0{fill:#7CFC00;}
</style>
<g>
	<path class="st0" d="M83.6,395.8l35.5-35.5c2.8,6.1,6.7,11.8,11.7,16.8l10.7,10.7c11.1,11.1,25.9,17.2,41.6,17.2
		c15.7,0,30.5-6.1,41.6-17.2l19.1-19.1l12.6,12.6c5,5,13.3,5,18.3,0c5.1-5.1,5.1-13.3,0-18.3L262,350.4l12.2-12.2l12.5,12.6
		c5.1,5.1,13.3,5.1,18.3,0c5.1-5.1,5.1-13.3,0-18.3l-12.6-12.6l12.2-12.2l12.6,12.5c5.1,5.1,13.3,5.1,18.3,0c5-5,5-13.3,0-18.3
		l-12.6-12.6l32-32c11.1-11.1,17.2-25.9,17.2-41.6c0-15.7-6.1-30.5-17.2-41.6l-10.7-10.7c-4.8-4.8-10.3-8.6-16.2-11.4
		c72.9-66.2,123.2-68,123.2-68L367.4,0C364.9,48.3,283,139.4,283,139.4L228,194.3l-11.4-11.4c-5.1-5.1-7.2,1-12.2,6.1
		c-5.1,5.1-11.2,7.1-6.1,12.2l11.4,11.4l-12.2,12.2l-11.4-11.4c-5.1-5.1-7.1,1-12.2,6.1c-5.1,5.1-11.2,7.2-6.1,12.2l11.4,11.5
		L167,255.4l-11.4-11.4c-5.1-5.1-7.2,1-12.2,6.1c-5.1,5.1-11.2,7.1-6.1,12.2l11.4,11.4l-93.6,93.6c-7.9,7.9-7.9,20.6,0,28.5
		C62.9,403.6,75.7,403.6,83.6,395.8z M202.4,365.6c-10.4,10.4-28.4,10.4-38.8,0l-10.7-10.7c-5.6-5.6-8.2-13.2-7.9-20.6l32.2-32.2
		l44.3,44.3L202.4,365.6z M239.8,328.2l-44.3-44.3l12.2-12.2L252,316L239.8,328.2z M270.3,297.7L226,253.3l12.2-12.2l44.3,44.3
		L270.3,297.7z M332.9,196.3c5.2,5.2,8,12.1,8,19.4c0,7.3-2.9,14.2-8,19.4l-32,32l-44.4-44.3l45.2-45.2c0.4,0,0.8-0.1,1.1-0.1
		c7.3,0,14.2,2.9,19.4,8L332.9,196.3z"/>
	<path class="st0" d="M128.1,255.1l18.8-18.8c2-2,1.4-5.7-1.2-8.3c-2.6-2.6-6.3-3.1-8.3-1.2l-18.8,18.8c-2,1.9-1.4,5.7,1.2,8.3
		C122.5,256.6,126.2,257.1,128.1,255.1z"/>
	<path class="st0" d="M159.4,223.9l18.8-18.8c2-2,1.4-5.7-1.2-8.3c-2.6-2.6-6.3-3.1-8.3-1.2L150,214.4c-2,2-1.4,5.7,1.2,8.3
		C153.8,225.3,157.5,225.8,159.4,223.9z"/>
	<path class="st0" d="M189.9,193.3l18.8-18.8c2-2,1.4-5.7-1.2-8.3c-2.6-2.6-6.3-3.1-8.3-1.2l-18.8,18.8c-2,2-1.4,5.7,1.2,8.3
		C184.3,194.8,188,195.3,189.9,193.3z"/>
	<polygon class="st0" points="57.7,413.7 37.6,393.6 0,406.8 44.5,451.4 	"/>
</g>
</svg>
