<?xml version="1.0" encoding="utf-8"?>
<!-- Generator: Adobe Illustrator 19.2.1, SVG Export Plug-In . SVG Version: 6.00 Build 0)  -->
<svg version="1.1" id="Layer_1" xmlns="http://www.w3.org/2000/svg" xmlns:xlink="http://www.w3.org/1999/xlink" x="0px" y="0px"
	 viewBox="0 0 566 282" style="enable-background:new 0 0 566 282;" xml:space="preserve">
<style type="text/css">
	.st0{fill:#7CFC00;}
	.st1{fill:#FFFFFF;}
</style>
<g>
	<circle class="st0" cx="354" cy="70" r="70"/>
	<polygon class="st1" points="381.5,63.8 363.3,60 354,43.8 344.7,60 326.5,63.8 339,77.6 337,96.2 354,88.6 371,96.2 369,77.6 	"/>
</g>
<g>
	<circle class="st0" cx="70" cy="70" r="70"/>
	<g>
		<path class="st1" d="M94.6,62.1H74c0,0,1.2-4.9,1.4-7.2c0.1-1.6,0.2-3.1-0.2-4.7c-0.5-2.3-1.1-3.8-2.1-5.6c-0.5-1-1.5-1.5-2.6-1.5
			h-4c-1.6,0-2.9,1.3-2.9,2.9c0,2.7,0,6.3,0,6.4c-1.6,3.3-3.4,6.4-5.4,9.5c-0.9,1.4-1.9,2.7-3,3.9c-0.5,0.5-0.8,1.2-0.8,2v25.3
			c0,0.7,0.3,1.5,0.8,2c0.8,0.8,2.2,1.7,4.4,1.7c7.2,0,18.9-0.1,27.2,0c1,0,2-0.5,2.5-1.4l7.3-12.5c0.5-0.9,0.8-1.9,0.8-2.9V65
			C97.5,63.4,96.2,62.1,94.6,62.1z"/>
		<path class="st1" d="M48,66.2h-2.6c-1.6,0-2.9,1.3-2.9,2.9V94c0,1.6,1.3,2.9,2.9,2.9H48c1.6,0,2.9-1.3,2.9-2.9V69.1
			C50.9,67.5,49.6,66.2,48,66.2z"/>
	</g>
</g>
<g>
	<circle class="st0" cx="212" cy="70" r="70"/>
	<g>
		<g id="Layer_5_47_">
			<path class="st1" d="M234.9,61.8h-2c-0.5,0-0.6-0.4-0.6-0.5c-1-9.8-9.4-17.5-19.4-17.5H211c-10,0-18.3,7.6-19.4,17.2
				c0,0.2,0,0.7-0.5,0.7H189c-1.4,0-4.6,1.4-4.6,8.7v3.8c0,5.4,3.2,6.6,4.6,6.6h6.6c1.4,0,2.5-1.1,2.5-2.5v-14
				c0-1.4-1.1-2.5-2.5-2.5c0,0-0.3,0-0.2-0.6c1.1-7.7,7.6-13.6,15.6-13.6h1.9c7.9,0,14.5,5.9,15.6,13.5c0,0.2,0.2,0.7-0.2,0.7
				c-1.4,0-2.5,1.1-2.5,2.5v14.2c0,1.4,1.1,2.5,2.5,2.5h1.2c0.3,0,0.3,0.3,0.3,0.4c-1,4.6-3.3,9.8-8.4,9.8h-3.8
				c-0.4,0-0.5-0.3-0.5-0.4c-0.6-1.1-1.8-1.9-3.2-1.9h-3.5c-2,0-3.6,1.6-3.6,3.6s1.6,3.6,3.6,3.6h3.5c1.4,0,2.6-0.8,3.2-1.9
				c0-0.1,0.1-0.3,0.5-0.3h3.8c3.5,0,8.1-1.7,10.6-10c0.3-0.9,0.5-1.8,0.6-2.6c0-0.1,0-0.4,0.4-0.4h1.9c1.4,0,4.6-1.2,4.6-6.6v-3.8
				C239.5,63.4,236.3,61.8,234.9,61.8z"/>
		</g>
	</g>
</g>
<g>
	<circle class="st0" cx="496" cy="70" r="70"/>
	<g>
		<polygon class="st1" points="501,70.5 498.2,72.1 498.2,101.3 523.5,86.7 523.5,57.5 		"/>
		<polygon class="st1" points="495.9,38.7 469.9,53.7 495.9,68.7 505.6,63.1 521.9,53.7 		"/>
		<polygon class="st1" points="478.1,63.2 468.5,57.7 468.5,86.7 493.6,101.2 493.6,72.2 482.7,65.9 		"/>
	</g>
</g>
<circle class="st1" cx="354" cy="212" r="70"/>
<polygon class="st0" points="381.5,205.8 363.3,202 354,185.8 344.7,202 326.5,205.8 339,219.6 337,238.2 354,230.6 371,238.2 
	369,219.6 "/>
<circle class="st1" cx="70" cy="212" r="70"/>
<g>
	<path class="st0" d="M94.6,204.1H74c0,0,1.2-4.9,1.4-7.2c0.1-1.6,0.2-3.1-0.2-4.7c-0.5-2.3-1.1-3.8-2.1-5.6c-0.5-1-1.5-1.5-2.6-1.5
		h-4c-1.6,0-2.9,1.3-2.9,2.9c0,2.7,0,6.3,0,6.4c-1.6,3.3-3.4,6.4-5.4,9.5c-0.9,1.4-1.9,2.7-3,3.9c-0.5,0.5-0.8,1.2-0.8,2v25.3
		c0,0.7,0.3,1.5,0.8,2c0.8,0.8,2.2,1.7,4.4,1.7c7.2,0,18.9-0.1,27.2,0c1,0,2-0.5,2.5-1.4l7.3-12.5c0.5-0.9,0.8-1.9,0.8-2.9v-15
		C97.5,205.4,96.2,204.1,94.6,204.1z"/>
	<path class="st0" d="M48,208.2h-2.6c-1.6,0-2.9,1.3-2.9,2.9V236c0,1.6,1.3,2.9,2.9,2.9H48c1.6,0,2.9-1.3,2.9-2.9v-24.9
		C50.9,209.5,49.6,208.2,48,208.2z"/>
</g>
<circle class="st1" cx="212" cy="212" r="70"/>
<g>
	<g id="Layer_5_1_">
		<path class="st0" d="M234.9,203.8h-2c-0.5,0-0.6-0.4-0.6-0.5c-1-9.8-9.4-17.5-19.4-17.5H211c-10,0-18.3,7.6-19.4,17.2
			c0,0.2,0,0.7-0.5,0.7H189c-1.4,0-4.6,1.4-4.6,8.7v3.8c0,5.4,3.2,6.6,4.6,6.6h6.6c1.4,0,2.5-1.1,2.5-2.5v-14.2
			c0-1.4-1.1-2.5-2.5-2.5c0,0-0.3,0-0.2-0.6c1.1-7.7,7.6-13.6,15.6-13.6h1.9c7.9,0,14.5,5.9,15.6,13.5c0,0.2,0.2,0.7-0.2,0.7
			c-1.4,0-2.5,1.1-2.5,2.5v14.2c0,1.4,1.1,2.5,2.5,2.5h1.2c0.3,0,0.3,0.3,0.3,0.4c-1,4.6-3.3,9.8-8.4,9.8h-3.8
			c-0.4,0-0.5-0.3-0.5-0.4c-0.6-1.1-1.8-1.9-3.2-1.9h-3.5c-2,0-3.6,1.6-3.6,3.6s1.6,3.6,3.6,3.6h3.5c1.4,0,2.6-0.8,3.2-1.9
			c0-0.1,0.1-0.3,0.5-0.3h3.8c3.5,0,8.1-1.7,10.6-10c0.3-0.9,0.5-1.8,0.6-2.6c0-0.1,0-0.4,0.4-0.4h1.9c1.4,0,4.6-1.2,4.6-6.6v-3.8
			C239.5,205.4,236.3,203.8,234.9,203.8z"/>
	</g>
</g>
<circle class="st1" cx="496" cy="212" r="70"/>
<g>
	<polygon class="st0" points="501,212.5 498.2,214.1 498.2,243.3 523.5,228.7 523.5,199.5 	"/>
	<polygon class="st0" points="495.9,180.7 469.9,195.7 495.9,210.7 505.6,205.1 521.9,195.7 	"/>
	<polygon class="st0" points="478.1,205.2 468.5,199.7 468.5,228.7 493.6,243.2 493.6,214.2 482.7,207.9 	"/>
</g>
</svg>
